OFF
928 1292 0

18.8816 -3.99678 59.5172
18.8816 -3.99678 67.7286
18.8816 -3.99678 72.9266
19.0865 2.86266 59.5172
23.6786 5.46002 59.5172
23.2631 7.01557 59.5172
23.6786 5.46002 72.9266
17.9786 7.01557 59.5172
23.2631 7.01557 72.9266
17.9786 7.01557 67.1067
17.9786 7.01557 72.9266
23.2631 7.01557 70.7463
23.9664 -3.99678 71.2307
23.9664 -3.99678 72.9266
19.0865 2.86266 72.9266
23.9664 -3.99678 59.5172
22.2505 7.01557 64.0314
21.5917 7.01557 64.0051
21.2033 7.01557 63.9896
19.2828 -0.547784 72.9266
20.9673 7.01557 63.9801
19.4324 7.01557 63.9187
19.7755 7.01557 63.9325
19.1716 2.21673 59.5172
19.4711 7.01557 63.9203
19.8756 7.01557 63.9365
20.9242 7.01557 63.9784
19.2406 7.01557 63.9063
17.9786 7.01557 63.4988
17.9786 7.01557 63.7894
18.7809 4.44528 59.5172
23.9664 -3.99678 65.8751
20.0882 -3.99678 65.6725
18.7267 4.66909 72.9266
20.3168 -3.99678 65.6681
20.7062 -3.99678 65.6608
24.0848 3.22037 59.5172
18.7267 4.66909 59.5172
20.3357 -3.99678 65.6678
20.9711 -3.99678 65.6558
18.7137 4.71762 59.5172
21.7914 7.01557 64.0131
21.3253 -3.99678 65.6491
19.6419 -3.99678 65.6936
24.0129 -3.72277 59.5172
19.2381 -3.99678 65.7191
19.1122 2.68604 72.9266
19.1971 -3.99678 65.7217
18.8927 -3.99678 65.7409
24.1413 -2.76443 59.5172
19.3399 -3.99678 66.0224
22.2028 -3.99678 65.9392
22.3462 -3.99678 65.935
24.1188 -2.96224 59.5172
24.172 2.47964 72.9266
19.3558 7.01557 63.9157
22.8943 -3.99678 65.9191
23.3199 -3.99678 65.9016
20.2008 -3.99678 65.6703
18.7166 4.70669 72.9266
24.3 0 59.5172
24.1535 2.65746 59.5172
24.2954 -0.147891 59.5172
24.0283 -3.6229 59.5172
20.1851 -3.99678 65.6706
18.7084 4.73742 72.9266
24.2941 0.186632 59.5172
19.0624 -3.01919 72.9266
24.1457 2.72637 59.5172
24.2815 0.589958 59.5172
24.2688 -0.994172 59.5172
24.2667 -1.0586 59.5172
23.861 4.59444 72.9266
24.252 1.52581 59.5172
24.0898 -3.18238 72.9266
24.2394 -1.67648 59.5172
24.2199 1.90888 59.5172
24.1795 2.38938 59.5172
24.1748 2.44617 59.5172
24.159 -2.60894 59.5172
19.5026 -3.99678 65.7024
24.1609 2.59243 59.5172
24.1599 2.6017 59.5172
24.2566 1.38192 59.5172
24.1129 -3.00661 72.9266
24.1502 -2.68671 59.5172
24.0695 3.33672 72.9266
24.126 2.89883 59.5172
18.925 3.7853 59.5172
24.1189 -2.96143 59.5172
24.2592 1.29915 59.5172
24.1227 2.92793 59.5172
24.1072 3.04988 59.5172
18.8894 3.95901 72.9266
24.0937 3.15253 59.5172
24.0745 -3.29825 59.5172
24.0845 -3.22221 59.5172
23.5806 5.8687 72.9266
24.059 -3.41308 59.5172
24.0607 -3.40118 59.5172
24.1651 -2.55556 59.5172
24.0331 3.59177 59.5172
23.6839 5.43589 59.5172
24.0446 -3.51251 59.5172
24.0301 -3.6111 59.5172
24.0056 3.77022 59.5172
24.1196 2.95547 72.9266
24.0043 3.77863 59.5172
24.0008 3.80136 59.5172
24.0033 3.78526 59.5172
24.0008 -3.80136 59.5172
23.9664 -3.99678 64.3312
19.2984 0.0521317 72.9266
23.8153 4.8291 59.5172
23.8122 4.84464 59.5172
23.7916 4.94375 59.5172
23.7722 5.03683 59.5172
24.1669 2.54004 59.5172
23.769 5.05225 59.5172
24.0181 3.68881 59.5172
23.7248 5.25137 59.5172
23.6537 5.56628 59.5172
19.1943 2.0174 59.5172
18.9454 3.68261 59.5172
19.3305 7.01557 63.9147
23.6358 5.64206 59.5172
23.6286 5.67272 59.5172
24.1189 -2.96143 72.9266
23.5782 5.8787 59.5172
19.2809 -0.608942 59.5172
23.3913 6.57628 59.5172
18.9293 -3.7635 59.5172
24.2812 0.598182 59.5172
23.3742 6.63983 59.5172
24.0153 3.70751 72.9266
19.2945 0.175911 59.5172
23.9789 -3.92544 59.5172
19.2978 0.0706385 59.5172
19.2809 -0.608942 59.5172
19.2674 -1.03595 59.5172
19.1561 -2.35233 59.5172
24.0354 3.57552 59.5172
23.47 6.28235 59.5172
19.2804 0.623197 59.5172
18.9143 -3.83909 59.5172
19.2619 -1.21186 59.5172
24.1189 2.96143 59.5172
19.2637 -1.1535 59.5172
19.2371 -1.50696 59.5172
19.2041 -1.90047 59.5172
19.2224 1.68187 72.9266
19.088 -2.85272 59.5172
19.2264 1.63531 59.5172
18.1826 7.01557 63.8083
23.8646 4.57384 59.5172
19.1937 -2.02241 59.5172
19.1887 2.06598 59.5172
18.9406 3.70659 59.5172
24.2464 -1.59275 72.9266
19.2107 -1.82126 72.9266
19.1877 2.075 59.5172
24.0331 -3.59177 59.5172
19.1887 -2.06667 59.5172
24.0331 -3.59177 72.9266
19.1799 -2.14318 59.5172
24.0474 -3.49313 72.9266
19.1617 -2.3035 59.5172
19.3 -2.78438e-15 59.5172
19.1532 2.37475 59.5172
19.1498 2.40056 59.5172
21.6558 7.01557 64.0077
19.1476 2.41701 59.5172
24.2122 2.00072 72.9266
21.5685 7.01557 64.0042
23.2631 7.01557 63.824
21.2728 -3.99678 65.6501
19.1441 2.44381 59.5172
23.8754 4.51257 59.5172
24.2851 -0.474734 59.5172
19.1323 -2.53283 59.5172
19.196 1.99699 72.9266
19.2026 -1.91872 59.5172
24.0717 3.31944 59.5172
19.1796 -2.14589 59.5172
19.1353 -2.51056 59.5172
19.1122 2.68604 59.5172
19.1105 2.69754 59.5172
19.1087 2.71024 59.5172
24.1669 -2.54004 59.5172
18.3499 5.98082 72.9266
23.6041 5.77296 59.5172
19.0915 -2.82853 59.5172
19.2981 0.0616757 59.5172
19.2583 1.25479 59.5172
19.0893 -2.84353 59.5172
19.1945 -2.01523 72.9266
19.088 2.85272 59.5172
24.1137 -3.00067 59.5172
22.7023 -3.99678 65.9246
19.0862 2.86428 59.5172
22.1709 7.01557 63.7568
19.0661 -2.99502 59.5172
19.0724 2.95414 59.5172
19.0624 3.01919 59.5172
21.8984 7.01557 63.74
19.0624 -3.01919 59.5172
19.0542 3.06567 59.5172
19.0454 3.11549 59.5172
18.9767 -3.50521 59.5172
19.0058 -3.33995 59.5172
18.943 3.69445 59.5172
19.2086 -1.84666 72.9266
18.3993 5.82691 59.5172
24.1524 -2.66708 59.5172
23.5818 5.86375 59.5172
18.9126 3.84751 59.5172
18.9125 -3.8478 59.5172
18.8957 -3.92899 59.5172
19.1122 -2.68604 59.5172
18.8832 -3.98876 59.5172
23.6871 5.42181 72.9266
18.8782 4.0127 59.5172
18.8053 4.34156 59.5172
23.9317 4.19337 59.5172
23.631 5.66263 72.9266
18.8816 -3.99678 63.2268
24.0364 3.56922 72.9266
19.0758 -2.93221 59.5172
19.1168 -2.65097 72.9266
18.873 4.03659 59.5172
18.8025 4.35362 59.5172
18.8677 4.06043 59.5172
18.7997 4.36535 59.5172
23.9872 -3.8789 59.5172
18.7814 4.44317 59.5172
19.1561 -2.35208 59.5172
19.1524 2.38063 72.9266
18.3554 5.96403 72.9266
18.7667 4.5055 59.5172
18.7609 4.52924 59.5172
23.8183 4.81374 59.5172
19.1922 2.03583 59.5172
19.2028 -1.91529 72.9266
18.4067 5.80362 59.5172
24.2429 -1.6348 72.9266
23.6772 5.46631 59.5172
18.7014 4.76355 59.5172
20.6481 -3.99678 65.6619
18.5524 5.3198 59.5172
18.6149 5.08631 59.5172
19.2659 -1.0846 72.9266
18.9233 3.79356 72.9266
24.0635 3.38191 59.5172
18.8974 -3.92068 72.9266
19.088 -2.85272 72.9266
19.2007 -1.94141 59.5172
18.7413 4.60937 59.5172
24.2232 -1.86988 72.9266
19.2783 0.689458 72.9266
21.7663 7.01557 63.7319
19.2619 -1.21186 72.9266
19.1582 2.3344 72.9266
19.2509 1.34328 72.9266
19.2635 -1.16255 72.9266
19.1651 2.27308 72.9266
19.0891 -2.84546 72.9266
19.2497 1.35752 59.5172
23.5836 5.85657 72.9266
19.2484 -1.37237 72.9266
19.0866 2.86169 72.9266
22.0591 7.01557 63.7499
18.8324 4.21951 59.5172
24.0159 -3.70356 72.9266
24.1454 2.72827 59.5172
22.04 7.01557 63.7487
19.0638 -3.01006 59.5172
19.1903 2.05254 72.9266
19.2673 1.04142 59.5172
23.8301 4.75443 72.9266
24.1915 2.2467 72.9266
19.1986 -1.96608 72.9266
19.177 -2.1691 72.9266
24.252 -1.52581 59.5172
19.1775 2.1643 59.5172
24.1405 -2.77167 72.9266
19.1594 2.32344 72.9266
19.1521 2.38244 72.9266
18.6531 4.94395 72.9266
18.9503 -3.65476 72.9266
19.1515 2.38715 72.9266
18.9454 -3.68261 72.9266
23.7711 5.04191 72.9266
24.0635 -3.38191 59.5172
18.3207 6.06928 59.5172
19.1296 2.55332 59.5172
19.2014 -1.93281 72.9266
18.5312 5.39003 59.5172
19.056 3.05518 72.9266
18.931 -3.75519 72.9266
24.1189 2.96143 72.9266
23.6492 5.58505 72.9266
19.1925 2.03311 72.9266
18.9454 3.68261 72.9266
18.9844 3.46165 72.9266
24.252 -1.52581 72.9266
23.7876 4.96267 72.9266
24.1235 2.92048 59.5172
19.1943 -2.0174 59.5172
24.252 1.52581 72.9266
24.0331 3.59177 72.9266
23.6908 5.4048 59.5172
23.4949 6.18955 72.9266
19.296 0.127257 72.9266
18.9139 -3.84093 72.9266
24.3 -3.01334e-15 72.9266
24.0296 -3.61429 72.9266
23.8535 4.63666 72.9266
23.6338 5.65054 72.9266
19.1845 2.10292 59.5172
24.2316 -1.76914 72.9266
19.1868 -2.08298 59.5172
19.1096 2.70354 72.9266
23.7754 5.02141 59.5172
24.0769 -3.27992 72.9266
23.8166 4.82229 72.9266
24.2969 -0.0971917 72.9266
18.0064 6.94584 72.9266
24.1357 2.8133 72.9266
23.9664 -3.99678 65.5992
19.2931 -0.220239 72.9266
24.1106 -3.02389 59.5172
23.5782 5.8787 72.9266
19.2773 -0.721258 72.9266
24.1379 2.79464 72.9266
18.9657 3.56771 72.9266
18.9076 3.87174 59.5172
23.8142 4.83422 72.9266
24.1264 2.8956 72.9266
24.3 0 72.9266
24.1617 -2.58533 72.9266
23.2631 7.01557 63.824
18.8816 -3.99678 66.0357
23.9183 4.26946 72.9266
19.1007 -2.76529 59.5172
19.2619 1.21186 59.5172
24.2559 -1.40455 72.9266
24.1632 -2.57239 72.9266
23.769 5.05225 72.9266
18.9577 -3.61295 72.9266
24.1692 2.51205 72.9266
17.9909 6.98462 59.5172
18.4504 5.65848 72.9266
24.2732 -0.85388 72.9266
18.2613 6.23902 59.5172
18.8911 3.95072 59.5172
18.1125 6.65364 59.5172
18.9089 3.86512 72.9266
24.1752 -2.4404 72.9266
24.2779 0.702537 72.9266
22.6691 7.01557 64.0482
24.1669 2.54004 72.9266
23.6321 5.65765 59.5172
18.0565 7.01557 63.7966
23.8535 4.63666 59.5172
23.6817 5.44593 72.9266
18.9624 -3.58631 59.5172
23.45 6.3572 72.9266
24.0376 3.56059 59.5172
19.1377 -2.492 72.9266
20.9326 -3.99678 65.6565
24.0664 3.35976 72.9266
18.0986 6.69231 72.9266
24.1642 -2.56364 59.5172
23.2631 7.01557 64.0731
24.0008 3.80136 72.9266
24.124 2.91614 72.9266
18.0029 6.95453 59.5172
23.8122 4.84464 72.9266
24.2954 -0.147891 59.5172
24.2115 2.00849 72.9266
24.0025 3.79045 72.9266
24.1217 2.93699 72.9266
20.0369 -3.99678 65.6734
24.2825 0.557782 59.5172
24.1282 2.87926 72.9266
22.6702 7.01557 63.7875
19.154 2.36826 72.9266
23.3823 6.60994 72.9266
18.3477 5.98725 59.5172
24.1683 -2.52324 72.9266
23.2631 7.01557 71.8629
24.1598 -2.60264 59.5172
24.1696 -2.50722 72.9266
18.4067 5.80362 72.9266
19.1923 2.03439 72.9266
19.1186 -2.63756 59.5172
19.1754 2.18344 59.5172
24.2948 -0.163971 72.9266
19.3 0 59.5172
19.2521 1.32879 59.5172
18.4028 5.81607 59.5172
18.9516 -3.64726 59.5172
18.6061 5.11905 72.9266
18.4037 5.81321 72.9266
18.3026 6.12398 72.9266
24.2073 -2.05897 59.5172
19.0853 2.8702 72.9266
18.0181 6.9165 59.5172
17.9786 7.01557 65.0068
19.1109 2.69496 72.9266
24.0616 -3.39504 72.9266
19.0975 2.78712 59.5172
19.2718 0.895832 72.9266
23.6772 5.46631 72.9266
24.2929 -0.226662 59.5172
24.1435 2.74493 72.9266
19.1833 2.1137 59.5172
18.3513 5.97652 59.5172
19.3 0 72.9266
18.8013 4.35877 72.9266
18.8706 4.04723 72.9266
24.1624 -2.57973 72.9266
18.9101 3.85969 59.5172
24.0008 -3.80136 72.9266
19.1672 2.2546 72.9266
17.9984 6.96578 72.9266
18.7625 4.52267 72.9266
19.1561 -2.35208 72.9266
19.1561 2.35208 72.9266
18.9125 3.8478 72.9266
24.0905 3.17698 72.9266
24.0678 3.34907 59.5172
18.0511 6.82453 59.5172
23.2631 7.01557 59.7351
23.2665 7.00429 59.5172
23.6286 5.67272 72.9266
18.5438 5.34828 72.9266
24.0635 3.38191 72.9266
19.9286 -3.99678 65.6755
24.0602 -3.40446 72.9266
19.2619 1.21186 72.9266
24.0468 3.49733 72.9266
24.0347 3.58078 72.9266
24.0311 -3.60498 72.9266
19.1943 -2.0174 72.9266
23.9978 -3.81851 72.9266
18.2728 6.2072 72.9266
23.9664 -3.99678 63.2668
19.1019 -2.7566 72.9266
18.9125 3.8478 59.5172
18.3554 5.96403 59.5172
23.9915 -3.85438 72.9266
19.129 2.55801 72.9266
18.8053 4.34156 72.9266
18.8782 4.0127 72.9266
18.9173 -3.82382 59.5172
18.2854 6.17202 72.9266
24.2572 1.36184 72.9266
24.077 -3.2791 59.5172
18.942 3.69996 72.9266
19.1987 -1.96509 72.9266
19.1777 -2.16303 59.5172
18.9436 3.69179 72.9266
18.4013 5.82047 72.9266
23.8694 4.54689 72.9266
18.8287 4.23604 72.9266
19.0635 -3.01199 72.9266
18.5315 7.01557 63.5328
18.3706 5.91647 72.9266
18.7488 4.57878 72.9266
19.1595 -2.32219 59.5172
18.8741 4.03122 72.9266
18.8031 4.35091 72.9266
19.2264 1.6347 72.9266
19.1742 -2.19352 72.9266
19.0501 3.08885 72.9266
19.0624 3.01919 72.9266
18.9125 -3.8478 72.9266
18.7667 4.5055 72.9266
19.1585 -2.33175 72.9266
18.7644 4.51489 72.9266
24.091 3.17292 72.9266
18.3522 5.97365 72.9266
18.9106 3.85702 72.9266
19.2036 -1.90619 59.5172
18.3182 6.07696 72.9266
18.3731 5.90875 59.5172
22.7408 -3.99678 65.9235
18.3026 6.12398 59.5172
18.2819 6.18176 72.9266
23.3587 6.69799 72.9266
24.176 2.43105 72.9266
19.0843 2.87689 59.5172
24.0495 3.47833 59.5172
19.2588 1.24851 72.9266
19.2461 -1.40037 72.9266
19.1146 -2.66752 59.5172
19.1246 -2.59137 59.5172
24.1649 -2.55764 72.9266
18.779 4.45348 72.9266
24.1669 -2.54004 72.9266
23.8339 4.73546 59.5172
18.9902 3.4287 59.5172
23.4284 6.43765 72.9266
19.2205 -1.7056 72.9266
24.2436 -1.62668 59.5172
22.2505 7.01557 63.7617
23.7165 5.28915 72.9266
24.1771 -2.41785 72.9266
23.3587 6.69799 59.5172
19.0119 -3.30569 72.9266
19.1561 2.35208 59.5172
21.0189 7.01557 63.9822
24.0635 -3.38191 72.9266
23.985 -3.89112 72.9266
18.7638 4.51762 59.5172
18.9454 -3.68261 59.5172
18.5371 5.37061 72.9266
19.1778 -2.16206 72.9266
22.236 7.01557 64.0309
18.0181 6.9165 72.9266
18.5413 5.35665 59.5172
18.5524 5.3198 72.9266
18.2802 6.18637 59.5172
18.7393 4.61761 72.9266
23.5995 5.79168 72.9266
24.1848 -2.32625 72.9266
24.0043 3.77883 72.9266
24.1554 2.64084 59.5172
19.1122 -2.68604 72.9266
19.1601 -2.31693 72.9266
19.2548 1.29645 72.9266
19.1717 2.21566 72.9266
24.2211 -1.89487 72.9266
19.0905 -2.83522 72.9266
19.0651 -3.0017 72.9266
19.2508 7.01557 63.5771
19.0771 -2.92363 72.9266
18.8819 -3.99538 72.9266
23.5857 5.8481 59.5172
23.2631 7.01557 64.0719
22.4935 7.01557 64.0412
24.1154 -2.98749 72.9266
19.0963 2.79546 72.9266
18.4576 5.63463 59.5172
23.8362 4.72373 72.9266
19.0711 2.9624 72.9266
19.088 2.85272 72.9266
19.2004 -1.94428 59.5172
24.255 1.43239 72.9266
19.2397 -1.47664 72.9266
23.369 6.65927 72.9266
24.293 0.223685 72.9266
18.916 -3.83045 72.9266
19.1943 2.0174 72.9266
23.7736 5.02994 72.9266
18.8816 -3.99678 65.7416
19.1141 -2.67139 72.9266
22.495 7.01557 63.7767
22.1862 7.01557 63.7577
18.994 -3.40674 65.6084
24.1175 -2.97217 65.707
24.1186 -2.96329 65.4872
19.1317 -2.53779 65.4811
19.1366 -2.50031 65.6979
19.1494 -2.403 65.7051
19.1549 -2.36153 65.707
19.1561 -2.35265 65.4872
19.1493 -2.40368 65.486
24.1439 -2.74207 65.5819
24.1388 -2.78651 65.5573
24.1301 -2.86288 65.7592
24.1325 -2.84211 65.7775
24.1422 -2.75688 65.862
24.1441 -2.74038 65.8917
24.1477 -2.70876 65.9957
24.1482 -2.7036 66.0322
24.1595 -2.60465 66.6015
24.159 -2.60921 65.7039
18.5423 5.35321 64.1143
18.2923 6.15287 63.9931
24.0887 -3.19041 65.4811
24.0937 -3.15294 65.6979
24.0978 -3.1211 65.7002
24.0945 -3.14654 65.4827
24.1628 -2.576 65.7467
24.1621 -2.58241 66.8011
24.1637 -2.56825 66.8532
23.9947 -3.83626 65.8516
23.518 6.10329 64.2596
18.9985 3.38157 64.5631
23.3583 6.69914 63.8976
23.3474 6.73534 64.1143
18.5531 5.31698 63.8976
24.2083 -2.04623 67.0885
24.1886 -2.28125 66.9574
24.1986 -2.1627 67.0515
24.2105 -2.02096 67.0881
24.2212 -1.89351 67.0868
24.1815 -2.36554 66.7695
24.1966 -2.18608 67.0384
24.1869 -2.30117 66.9289
24.1825 -2.35395 66.811
24.1707 -2.49399 65.9693
24.1693 -2.51091 65.9115
24.1795 -2.38966 66.5616
24.1696 -2.50804 67.0018
24.1721 -2.47776 67.0484
24.1826 -2.35298 67.1811
24.1861 -2.31115 67.2085
24.2003 -2.14212 67.2863
24.2043 -2.09485 67.2916
24.2202 -1.90484 67.3065
19.1929 -2.02905 65.7467
19.1772 -2.16757 65.5819
19.1617 -2.30341 65.5067
19.1658 -2.26761 65.7775
19.1685 -2.24388 65.801
19.1742 -2.19343 65.8917
19.1752 -2.18462 65.9207
19.177 -2.16886 66.0322
19.1802 -2.1413 66.1907
19.1814 -2.13057 65.6159
19.1879 -2.0733 66.8011
19.1928 -2.03002 66.9604
19.1395 2.47819 64.4788
19.1463 2.42705 64.4986
19.1475 2.41771 64.749
19.1439 2.44526 64.7282
19.1504 2.39591 65.9399
19.1335 2.52422 64.6921
19.1288 2.55993 64.6827
24.2497 -1.55364 67.2286
19.2011 1.93626 66.3957
19.198 1.97285 66.3828
19.1979 1.97391 66.6124
19.2479 1.37875 66.4767
24.1442 2.7388 64.7404
24.163 2.57405 66.3495
24.1598 2.60178 66.3333
24.1548 2.64575 65.0127
24.1476 2.70916 66.2283
24.1407 2.7701 65.9295
24.1257 2.90174 64.575
24.1419 2.75936 66.1217
24.1496 2.6918 66.2556
24.1406 2.77065 64.6975
24.1549 2.64548 64.959
24.1528 2.66349 64.9022
24.1548 2.64649 65.1659
24.1408 2.76864 66.0844
24.1433 2.74723 65.7312
24.1406 2.77047 65.9697
24.1285 2.87726 64.9254
24.13 2.86407 64.9591
24.1301 2.86281 65.1343
24.13 2.86375 65.0046
24.1548 2.64603 66.5561
24.1301 2.86278 66.3848
24.1503 2.68586 66.5363
24.1341 2.82736 66.4241
19.1585 -2.3311 65.7215
24.3 -5.95178e-15 67.005
24.3 -5.95178e-15 66.785
24.2858 0.450391 66.6843
19.228 -1.61533 67.0885
19.2171 -1.74557 67.0159
19.2253 -1.64772 67.0782
19.2345 -1.53818 67.0871
19.2375 -1.50274 67.0868
19.2078 -1.85648 66.7695
19.2193 -1.7191 67.0384
19.212 -1.8064 66.9289
19.2108 -1.82108 66.8961
19.2053 -1.886 67.1811
19.216 -1.75823 67.2647
19.22 -1.71122 67.2863
19.2321 -1.56691 67.3023
19.2365 -1.51406 67.3065
24.1751 2.44273 66.3957
24.1719 2.48038 66.6124
24.289 -0.350662 66.8633
24.1205 2.94709 64.55
24.1191 2.95949 64.8029
24.1214 2.93885 64.8291
24.1204 2.94822 66.226
19.2864 -0.432778 67.0675
19.3 -4.72714e-15 66.7848
24.0966 3.13079 64.4788
24.1061 3.05847 64.7282
24.1153 2.98839 65.9399
24.1159 2.98431 65.9997
24.1184 2.96505 65.7308
24.1027 3.0843 64.7164
24.0858 3.21254 64.6827
24.1178 2.96984 66.1703
19.1786 2.15468 64.7404
19.1872 2.07948 65.1233
19.1808 2.13591 66.2283
19.176 2.17766 65.9295
19.1634 2.28853 64.575
19.1792 2.14989 66.1986
19.1868 2.08285 66.3116
19.1675 2.25202 64.6091
19.1873 2.07866 64.959
19.181 2.13371 64.7855
19.1872 2.07969 65.1659
19.1759 2.17826 66.0844
19.184 2.10774 65.3233
19.1759 2.17877 66.0524
19.1578 2.33758 64.8559
19.1624 2.29724 64.9591
19.1593 2.32448 65.3004
19.1625 2.29601 65.1343
19.1625 2.29627 65.0982
19.1633 2.28954 66.3848
19.1606 2.31333 66.3406
19.1801 2.14186 66.5363
19.1756 2.18126 66.5051
24.0027 3.789 64.3304
19.152 2.38345 66.1228
19.1558 2.35472 64.8291
19.1525 2.37942 66.1703
19.2822 0.565474 66.9238
24.2103 2.02278 66.7139
19.1992 -1.9592 65.9693
19.1948 -2.01093 65.7926
19.2016 -1.93016 66.1342
19.1946 -2.01326 67.0018
19.2024 -1.92073 67.1441
19.1897 2.05778 66.3333
19.194 2.02013 66.5967
19.2663 -1.07219 67.0243
18.7676 4.50176 64.0202
19.0656 -2.99816 65.8099
19.0656 -2.99803 65.5484
19.161 -2.30973 65.7404
19.161 -2.3095 65.5043
23.9817 -3.90991 65.5864
23.9818 -3.9092 65.8623
18.9125 -3.8478 65.7078
18.9125 -3.8478 66.0019
19.1561 -2.35208 65.4874
19.1561 -2.35208 65.7115
19.1943 -2.0174 65.7762
19.1943 -2.0174 66.9916
24.0289 -3.61903 65.5438
24.0289 -3.61887 65.8026
24.0596 -3.40923 65.5131
24.0596 -3.40907 65.7554
24.1117 -3.0162 65.4859
24.1117 -3.01592 65.705
24.1669 -2.54004 66.9229
24.1669 -2.54004 65.8379
19.1506 2.39411 65.9664
19.1506 2.39415 65.9241
19.1505 2.3953 64.7775
19.1504 2.39556 64.516
19.1561 2.35208 64.54
19.1561 2.35208 64.8332
19.1561 2.35208 65.5472
19.1561 2.35208 66.2408
19.1895 2.05891 66.5775
19.1895 2.05915 66.3321
19.1943 2.0174 66.3569
19.1943 2.0174 66.5977
19.2536 1.31132 66.7593
19.2535 1.31197 66.4916
19.2619 1.21186 66.514
19.2619 1.21186 66.7813
24.1777 2.41077 66.4004
24.1777 2.41147 66.6277
24.252 1.52581 66.7854
24.252 1.52581 66.5289
19.0624 3.01919 64.3568
19.0624 3.01919 64.616
24.252 -1.52581 67.2246
24.252 -1.52581 67.0333
24.3 0 66.785
24.3 0 67.005
19.1122 -2.68604 65.5028
19.1122 -2.68604 65.7396
24.1189 -2.96143 65.7122
24.1189 -2.96143 65.4879
19.088 -2.85272 65.5272
19.088 -2.85272 65.7771
19.0624 -3.01919 65.5515
19.0624 -3.01919 65.8146
18.9454 -3.68261 65.6704
18.9454 -3.68261 65.9645
19.0472 3.10538 64.6034
19.0471 3.10591 64.3372
24.1669 2.54004 66.5922
24.1669 2.54004 66.3615
19.088 2.85272 64.3944
19.088 2.85272 64.6402
19.109 2.70767 64.6613
19.109 2.70779 64.4271
24.0051 3.77332 64.3339
24.0051 3.77349 64.6012
24.0372 3.56372 64.3812
24.0371 3.56388 64.6317
24.0709 3.32578 64.4349
24.0709 3.32608 64.6663
24.1253 2.90536 64.573
24.1252 2.90575 64.8808
24.1251 2.90641 65.3887
24.125 2.90759 66.3015
19.1122 2.68604 64.432
19.1122 2.68604 64.6644
24.0635 -3.38191 65.7493
24.0635 -3.38191 65.5091
18.7267 4.66909 63.9951
18.7267 4.66909 64.2716
18.7667 4.5055 64.0196
18.7667 4.5055 64.309
18.8053 4.34156 64.0567
18.8053 4.34156 64.3463
18.8782 4.0127 64.1316
18.8782 4.0127 64.421
18.9125 3.8478 64.1691
18.9125 3.8478 64.4583
18.9454 3.68261 64.2066
18.9454 3.68261 64.4956
18.9167 -3.82703 65.9972
18.9167 -3.82688 65.7031
18.8826 -3.99198 66.0346
18.8826 -3.99183 65.7404
18.3026 6.12398 63.7095
18.3026 6.12398 63.9975
23.6286 5.67272 64.3232
23.6286 5.67272 64.0519
18.3484 5.98509 64.0187
18.3484 5.98522 63.742
19.2619 -1.21186 67.0445
19.2619 -1.21186 67.2395
18.3554 5.96403 63.7469
18.3554 5.96403 64.0219
23.6772 5.46631 64.3535
23.6772 5.46631 64.0828
18.4 5.82473 64.043
18.3999 5.82486 63.7795
18.4067 5.80362 63.7844
18.4067 5.80362 64.0462
18.5524 5.3198 63.8969
18.5524 5.3198 64.122
23.769 5.05225 64.4143
23.769 5.05225 64.1444
18.5332 5.38338 64.1097
18.5331 5.38371 63.8821
18.9601 -3.59908 65.9456
18.9602 -3.5985 65.6515
24.0008 3.80136 64.5971
24.0008 3.80136 64.3286
18.8003 4.36298 64.3415
18.8003 4.36313 64.0518
23.8535 4.63666 64.4752
23.8535 4.63666 64.2059
18.7615 4.5269 64.3041
18.7615 4.52704 64.0164
24.0331 -3.59177 65.7965
24.0331 -3.59177 65.5398
23.8122 4.84464 64.4447
23.8122 4.84464 64.1751
18.7039 4.75432 64.252
18.7037 4.75485 63.9822
19.3 0 67.0052
19.3 0 66.7848
24.1189 2.96143 66.192
24.1189 2.96143 65.7096
24.1189 2.96143 64.8014
24.1189 2.96143 64.5445
18.9411 3.70413 64.4907
18.9411 3.70428 64.2017
23.8177 4.81672 64.1792
23.8177 4.81689 64.4488
23.7748 5.02436 64.1485
23.7748 5.02453 64.4184
23.6895 5.4106 64.0911
23.6895 5.41095 64.3616
23.6351 5.64493 64.0561
23.6351 5.6451 64.3272
23.585 5.85095 64.0253
23.5849 5.85112 64.2969
24.0331 3.59177 64.6276
24.0331 3.59177 64.3749
18.8687 4.05561 64.4112
18.8687 4.0559 64.1218
23.3587 6.69799 64.123
23.3587 6.69799 63.8977
17.9933 6.97861 63.7982
17.9932 6.97902 63.5075
23.5782 5.8787 64.2928
23.5782 5.8787 64.0211
18.2651 6.22844 63.9753
18.2649 6.22913 63.6847
18.0181 6.9165 63.5224
18.0181 6.9165 63.8131
19.2666 -1.06385 67.2068
19.2666 -1.06318 67.0223
19.0847 2.87433 64.637
19.0847 2.87446 64.3895
24.2581 1.33206 66.5569
24.2581 1.33326 66.8131
19.2953 0.14882 66.9838
19.2953 0.149663 66.7513
24.294 -0.192483 66.828
24.294 -0.191527 67.0326
23.3883 6.58732 63.9144
23.3882 6.58791 64.1483
24.0635 3.38191 64.6581
24.0635 3.38191 64.4222
18.9081 3.8693 64.4534
18.908 3.86944 64.1642
23.8733 4.52462 64.2223
23.8732 4.5253 64.4914
19.0911 -2.83165 65.7724
19.0911 -2.83152 65.5241
24.1607 -2.59463 65.7227
24.1608 -2.59336 66.7028
24.0008 -3.80136 65.8437
24.0008 -3.80136 65.5705
19.2025 -1.91887 67.1461
19.2027 -1.91671 66.2502
24.2414 -1.65306 67.0518
24.2414 -1.65244 67.2505
19.1177 -2.64378 65.7301
19.1178 -2.64354 65.4966
3  25 26 580
3  34 38 560
3  157 210 873
3  346 587 752
3  37 812 865
3  801 442 226
3  580 55 21
3  828 488 293
3  31 57 739
3  56 588 57
3  745 518 444
3  33 59 813
3  813 65 864
3  646 61 643
3  751 542 84
3  76 77 770
3  770 77 793
3  155 613 307
3  761 428 386
3  43 851 80
3  825 45 788
3  647 81 648
3  851 516 788
3  746 63 861
3  562 89 783
3  747 443 315
3  789 290 288
3  783 89 49
3  156 763 704
3  798 105 719
3  719 107 853
3  888 490 909
3  853 109 108
3  925 244 612
3  113 114 863
3  134 309 884
3  863 114 876
3  820 215 88
3  885 101 798
3  798 119 105
3  580 124 55
3  894 27 580
3  687 139 899
3  45 825 47
3  885 141 101
3  135 905 768
3  91 146 871
3  92 688 146
3  834 145 923
3  148 149 923
3  773 73 770
3  122 152 764
3  27 894 153
3  613 155 622
3  860 165 163
3  757 169 168
3  908 130 889
3  17 837 173
3  39 175 560
3  918 391 372
3  560 175 42
3  901 492 199
3  171 626 625
3  154 857 177
3  70 178 906
3  615 164 737
3  140 184 567
3  797 187 186
3  585 188 753
3  831 126 882
3  151 784 917
3  348 510 850
3  191 194 917
3  67 787 850
3  774 203 202
3  70 906 71
3  203 774 791
3  208 560 786
3  159 676 211
3  79 578 569
3  174 591 340
3  570 213 569
3  588 198 52
3  893 214 128
3  211 675 242
3  246 865 844
3  853 108 914
3  219 225 827
3  914 223 177
3  879 364 220
3  205 209 786
3  738 136 921
3  921 233 110
3  232 855 733
3  857 363 874
3  825 216 740
3  814 234 733
3  804 273 87
3  874 501 240
3  825 455 144
3  221 818 887
3  410 439 749
3  81 647 117
3  104 161 861
3  365 401 851
3  158 244 925
3  179 568 184
3  865 246 40
3  884 309 801
3  560 247 35
3  38 247 560
3  752 500 498
3  248 249 844
3  242 674 295
3  725 181 726
3  22 25 580
3  404 829 832
3  37 256 812
3  260 263 835
3  924 75 777
3  254 265 785
3  814 238 30
3  764 266 636
3  479 530 736
3  97 267 883
3  260 835 678
3  67 466 787
3  841 270 836
3  643 68 804
3  205 786 735
3  758 511 23
3  201 275 735
3  768 277 143
3  127 782 919
3  261 716 715
3  718 285 715
3  722 286 720
3  720 289 754
3  176 625 808
3  172 308 772
3  185 294 808
3  887 231 229
3  410 749 513
3  106 685 299
3  158 925 304
3  140 567 235
3  804 87 682
3  123 822 873
3  587 421 586
3  122 764 763
3  778 60 664
3  120 310 878
3  151 227 784
3  102 839 310
3  904 312 258
3  72 915 316
3  300 838 317
3  160 704 705
3  257 611 612
3  852 374 799
3  164 615 320
3  236 722 761
3  78 117 793
3  622 162 614
3  115 322 876
3  662 314 907
3  560 42 738
3  420 465 886
3  898 329 686
3  197 562 750
3  250 332 898
3  100 585 918
3  302 823 590
3  875 336 324
3  919 339 284
3  703 416 696
3  748 98 811
3  588 50 826
3  767 344 768
3  776 345 304
3  826 538 253
3  129 687 138
3  789 348 850
3  860 163 747
3  335 913 818
3  221 354 818
3  353 895 896
3  912 356 93
3  183 461 737
3  349 680 360
3  560 64 58
3  302 462 823
3  137 192 905
3  278 856 324
3  741 553 824
3  792 415 360
3  880 125 831
3  350 376 891
3  29 362 890
3  153 897 362
3  768 344 277
3  154 363 857
3  560 365 851
3  141 885 367
3  469 524 858
3  228 368 926
3  802 94 36
3  560 369 39
3  35 369 560
3  783 85 570
3  478 480 815
3  342 374 852
3  826 1 538
3  341 1 826
3  305 377 862
3  872 429 821
3  336 875 377
3  62 778 378
3  91 871 306
3  772 379 172
3  116 118 847
3  185 808 797
3  685 106 807
3  321 796 809
3  807 381 375
3  902 383 69
3  847 118 878
3  201 735 784
3  908 142 130
3  248 844 849
3  664 383 902
3  591 385 849
3  828 388 833
3  21 24 580
3  71 681 282
3  474 623 530
3  578 391 918
3  218 343 780
3  868 481 299
3  848 393 843
3  276 762 731
3  134 884 527
3  283 703 700
3  69 132 902
3  325 397 907
3  867 398 167
3  767 399 193
3  568 179 563
3  327 659 384
3  845 522 436
3  892 366 311
3  359 848 541
3  836 274 833
3  395 496 927
3  766 180 635
3  419 499 854
3  314 662 338
3  864 522 845
3  214 893 539
3  159 504 676
3  65 287 864
3  97 883 331
3  254 785 734
3  879 220 846
3  636 399 767
3  478 815 854
3  902 132 90
3  893 128 908
3  845 517 848
3  848 359 592
3  824 553 298
3  41 840 170
3  562 197 53
3  133 509 889
3  74 810 84
3  923 149 727
3  610 533 526
3  323 513 810
3  726 255 744
3  191 917 780
3  848 517 351
3  790 334 590
3  894 520 897
3  778 62 60
3  897 520 326
3  560 58 34
3  339 919 586
3  459 872 823
3  831 361 126
3  44 63 746
3  820 157 873
3  305 862 555
3  222 816 855
3  243 842 841
3  291 877 347
3  508 609 610
3  56 487 588
3  83 773 90
3  237 482 837
3  262 473 766
3  380 527 799
3  611 533 610
3  189 485 832
3  20 512 829
3  181 725 484
3  772 308 903
3  296 521 849
3  121 880 245
3  724 279 772
3  169 757 626
3  766 531 262
3  54 771 349
3  769 531 766
3  916 534 448
3  216 217 740
3  788 516 131
3  898 332 19
3  424 717 762
3  588 51 50
3  785 534 916
3  883 267 830
3  635 554 765
3  777 505 282
3  250 898 835
3  95 581 292
3  199 3 901
3  3 196 901
3  196 794 901
3  765 554 301
3  440 494 769
3  111 447 738
3  766 473 150
3  743 427 736
3  506 559 842
3  113 863 240
3  287 402 864
3  406 546 900
3  891 467 28
3  529 557 781
3  828 259 895
3  228 926 781
3  47 740 48
3  190 539 882
3  20 829 26
3  909 551 387
3  156 241 763
3  96 750 584
3  846 507 347
3  535 537 734
3  779 552 338
3  588 445 739
3  200 841 842
3  74 323 810
3  243 544 842
3  737 461 166
3  407 432 896
3  276 532 762
3  222 271 816
3  337 658 375
3  395 927 563
3  353 523 895
3  291 555 877
3  843 463 840
3  830 525 435
3  839 4 245
3  102 4 839
3  773 83 73
3  189 832 837
3  723 440 769
3  290 789 824
3  826 477 741
3  358 552 779
3  366 892 503
3  450 486 836
3  897 425 890
3  224 317 881
3  238 814 859
3  6 879 413
3  364 879 6
3  895 536 896
3  849 558 842
3  18 173 832
3  165 860 439
3  225 556 827
3  342 852 464
3  688 92 802
3  99 292 811
3  54 491 771
3  7 350 28
3  790 475 303
3  648 82 637
3  890 408 29
3  434 433 509
3  889 433 340
3  318 705 696
3  867 167 138
3  744 548 307
3  842 558 506
3  36 182 802
3  926 427 743
3  476 775 900
3  757 511 758
3  504 550 676
3  390 8 490
3  390 490 888
3  741 477 313
3  278 545 856
3  123 502 822
3  659 327 657
3  404 456 829
3  195 728 444
3  453 817 886
3  890 9 408
3  425 10 9
3  890 425 9
3  61 646 528
3  782 542 751
3  16 843 519
3  916 529 781
3  803 86 695
3  888 11 390
3  373 11 888
3  588 487 198
3  787 535 734
3  268 678 495
3  758 396 700
3  909 387 589
3  795 547 269
3  894 446 371
3  588 52 51
3  803 370 86
3  289 452 754
3  739 12 31
3  739 514 12
3  451 514 739
3  903 549 457
3  495 677 550
3  912 454 819
3  686 418 866
3  856 545 316
3  657 333 792
3  335 422 913
3  426 858 815
3  373 888 592
3  446 894 580
3  695 430 868
3  296 849 842
3  18 832 512
3  32 64 560
3  905 398 867
3  224 881 435
3  891 407 896
3  204 828 833
3  218 780 927
3  606 500 752
3  911 252 800
3  765 394 731
3  207 791 822
3  774 492 901
3  279 724 491
3  896 432 355
3  829 489 580
3  135 137 905
3  212 841 836
3  145 834 899
3  356 912 821
3  429 483 821
3  121 125 880
3  776 352 345
3  775 476 297
3  352 776 397
3  775 475 790
3  103 748 161
3  16 541 843
3  321 543 796
3  281 624 474
3  139 147 899
3  913 449 820
3  420 886 819
3  454 471 819
3  742 470 235
3  737 166 742
3  311 331 892
3  14 795 269
3  795 406 900
3  581 458 584
3  748 103 98
3  41 519 840
3  796 547 795
3  426 469 858
3  791 207 206
3  178 414 906
3  237 837 840
3  463 468 840
3  728 195 729
3  96 330 750
3  239 515 859
3  72 464 915
3  116 847 322
3  212 400 841
3  922 460 295
3  231 887 816
3  658 337 660
3  488 828 895
3  393 403 843
3  729 280 922
3  75 924 753
3  740 219 827
3  358 779 457
3  788 455 825
3  467 891 896
3  820 449 215
3  920 423 588
3  827 556 48
3  801 226 910
3  910 441 437
3  851 43 560
3  44 746 110
3  357 608 609
3  419 854 817
3  866 312 904
3  560 438 382
3  738 328 111
3  370 803 437
3  46 809 754
3  911 431 252
3  447 15 136
3  738 447 136
3  802 182 911
3  716 428 761
3  264 718 717
3  389 606 607
3  800 493 367
3  272 423 920
3  560 382 32
3  866 418 112
3  388 417 833
3  378 663 414
3  300 413 838
3  833 450 836
3  904 258 723
3  239 859 812
3  624 281 745
3  196 411 794
3  17 170 837
3  33 813 858
3  187 797 794
3  46 409 809
3  272 920 315
3  608 392 607
3  453 472 817
3  872 459 251
3  188 405 753
3  855 232 230
3  580 24 22
3  834 598 924
3  777 834 924
3  777 732 834
3  669 598 834
3  661 736 571
3  736 616 571
3  571 616 572
3  590 856 915
3  796 801 910
3  775 799 900
3  590 589 892
3  852 799 775
3  590 883 830
3  590 881 838
3  590 879 846
3  590 877 862
3  590 875 856
3  590 915 852
3  900 799 884
3  590 892 883
3  590 830 881
3  590 838 879
3  590 846 877
3  590 862 875
3  852 775 790
3  900 884 795
3  795 801 796
3  910 803 809
3  590 852 790
3  809 803 631
3  884 801 795
3  694 631 803
3  682 626 757
3  757 758 682
3  643 804 758
3  700 643 758
3  712 806 869
3  712 655 806
3  655 712 713
3  798 774 901
3  885 798 901
3  855 816 719
3  816 887 719
3  887 818 719
3  913 719 818
3  913 820 719
3  820 873 719
3  873 822 719
3  822 791 719
3  774 798 719
3  774 719 791
3  885 901 794
3  885 794 800
3  911 808 802
3  808 911 797
3  808 625 802
3  800 794 797
3  802 625 688
3  911 800 797
3  733 914 857
3  733 853 914
3  865 908 593
3  865 893 908
3  812 882 893
3  814 880 831
3  733 878 839
3  733 876 847
3  593 908 591
3  591 908 889
3  874 863 733
3  882 812 859
3  882 859 831
3  859 814 831
3  733 719 853
3  733 880 814
3  733 839 880
3  733 847 878
3  733 863 876
3  733 857 874
3  865 812 893
3  670 599 602
3  682 871 626
3  871 688 626
3  626 688 625
3  48 740 827
3  47 825 740
3  80 851 788
3  80 788 45
3  581 927 811
3  581 563 927
3  738 921 786
3  748 917 861
3  748 780 917
3  784 735 746
3  328 738 42
3  735 786 921
3  746 735 921
3  738 786 560
3  861 784 746
3  917 784 861
3  811 780 748
3  811 927 780
3  568 584 750
3  562 567 750
3  341 826 50
3  826 741 588
3  824 588 741
3  824 789 588
3  850 588 789
3  850 787 588
3  920 588 787
3  734 920 787
3  916 860 785
3  785 747 734
3  926 810 781
3  920 734 747
3  781 749 916
3  781 810 749
3  926 582 810
3  860 747 785
3  926 564 582
3  749 860 916
3  679 638 634
3  633 679 634
3  680 765 792
3  680 635 765
3  731 657 792
3  561 743 782
3  561 566 743
3  661 571 782
3  589 821 912
3  845 909 589
3  845 888 909
3  845 592 888
3  864 845 589
3  813 864 589
3  858 813 589
3  815 858 589
3  854 815 589
3  817 854 589
3  886 817 589
3  819 886 589
3  912 819 589
3  872 821 589
3  823 872 589
3  590 823 589
3  579 592 845
3  627 689 870
3  689 627 628
3  684 759 721
3  684 710 759
3  710 684 805
3  536 467 896
3  558 849 385
3  536 895 259
3  259 828 204
3  274 204 833
3  274 836 270
3  270 841 200
3  559 200 842
3  844 591 849
3  385 591 174
3  844 593 591
3  26 829 580
3  173 837 832
3  170 840 837
3  519 843 840
3  541 848 843
3  540 592 359
3  592 579 848
3  716 761 685
3  761 868 685
3  868 722 695
3  761 722 868
3  666 672 595
3  595 672 601
3  685 807 716
3  807 658 716
3  716 658 715
3  723 769 724
3  766 724 769
3  724 635 771
3  766 635 724
3  771 635 680
3  783 737 742
3  783 615 737
3  783 742 562
3  567 562 742
3  779 904 723
3  779 866 904
3  723 772 903
3  723 724 772
3  723 903 779
3  662 866 779
3  613 585 744
3  753 604 726
3  744 753 726
3  612 835 925
3  678 835 612
3  898 632 835
3  898 686 632
3  925 835 632
3  664 636 767
3  767 768 664
3  905 664 768
3  905 778 664
3  687 663 867
3  663 778 867
3  866 662 907
3  776 632 686
3  866 907 686
3  730 764 639
3  764 638 639
3  595 600 666
3  666 600 671
3  636 664 902
3  636 773 770
3  636 902 773
3  679 633 770
3  730 639 763
3  639 645 702
3  763 639 702
3  657 731 762
3  717 659 657
3  755 760 692
3  760 712 692
3  690 755 692
3  683 721 756
3  721 683 684
3  691 720 754
3  629 690 754
3  728 606 745
3  752 587 624
3  745 606 624
3  566 561 751
3  751 565 566
3  57 588 739
3  667 671 596
3  596 671 600
3  594 665 667
3  153 894 897
3  124 580 27
3  362 897 890
3  665 594 597
3  597 598 668
3  668 598 669
3  687 906 663
3  687 681 906
3  681 687 899
3  585 613 918
3  613 622 578
3  918 613 578
3  623 919 577
3  623 586 919
3  923 727 605
3  599 670 605
3  674 608 922
3  608 607 729
3  922 608 729
3  569 578 622
3  614 569 622
3  614 615 570
3  569 614 570
3  696 637 646
3  637 696 705
3  601 672 673
3  704 640 647
3  649 697 706
3  641 644 701
3  698 641 701
3  698 702 645
3  641 698 645
3  674 675 609
3  608 674 609
3  728 729 607
3  606 728 607
3  620 576 575
3  576 620 621
3  623 624 587
3  586 623 587
3  564 565 583
3  582 564 583
3  628 630 693
3  689 628 693
3  691 695 720
3  720 695 722
3  711 653 654
3  711 654 656
3  655 713 714
3  572 616 617
3  617 618 573
3  573 618 574
3  574 618 619
3  568 563 584
3  584 563 581
3  694 630 631
3  603 727 725
3  725 604 603
3  612 611 677
3  678 612 677
3  676 611 610
3  659 717 718
3  610 609 675
3  676 610 675
3  718 715 660
3  660 715 658
3  699 652 642
3  650 709 707
3  708 699 651
3  651 699 642
3  651 649 708
3  708 649 706
3  707 701 644
3  650 707 644
3  705 704 648
3  648 704 647
3  646 643 703
3  703 643 700
3  770 633 636
3  867 778 905
3  899 732 681
3  793 638 679
3  764 634 638
3  650 652 709
3  699 709 652
3  649 640 697
3  704 697 640
3  648 637 705
3  703 696 646
3  758 804 682
3  855 719 733
3  512 832 829
3  809 796 910
3  694 693 630
3  756 627 683
3  870 683 627
3  711 710 653
3  805 653 710
3  656 655 714
3  714 711 656
3  755 690 629
3  869 692 712
3  754 690 691
3  660 659 718
3  792 765 731
3  762 717 657
3  776 686 907
3  676 677 611
3  752 624 606
3  577 576 621
3  621 623 577
3  575 574 619
3  619 620 575
3  573 572 617
3  782 743 661
3  751 583 565
3  438 560 43
3  750 567 568
3  783 570 615
3  753 744 585
3  725 726 604
3  603 605 727
3  923 605 670
3  602 601 673
3  673 670 602
3  596 594 667
3  668 665 597
3  777 681 732
3  537 254 734
3  227 201 784
3  315 920 747
3  110 746 921
3  365 560 208
3  209 208 786
3  510 67 850
3  561 782 751
3  542 782 127
3  330 197 750
3  89 562 53
3  497 395 563
3  497 563 179
3  564 926 565
3  743 565 926
3  743 566 565
3  184 568 567
3  235 567 742
3  427 926 368
3  213 79 569
3  213 570 85
3  85 783 49
3  782 571 572
3  574 572 573
3  575 572 574
3  576 572 575
3  782 572 576
3  782 576 577
3  782 577 919
3  391 578 79
3  284 127 919
3  520 894 371
3  355 353 896
3  468 237 840
3  486 212 836
3  848 579 845
3  517 845 436
3  521 248 849
3  489 446 580
3  489 829 456
3  523 488 895
3  429 872 251
3  157 820 88
3  527 884 799
3  119 798 101
3  458 581 95
3  292 581 811
3  583 810 582
3  458 96 584
3  84 810 751
3  751 810 583
3  393 848 351
3  544 296 842
3  188 585 100
3  372 100 918
3  421 339 586
3  421 587 346
3  498 346 752
3  451 739 445
3  445 588 423
3  233 921 136
3  503 892 589
3  503 589 387
3  142 908 128
3  524 33 858
3  256 239 812
3  514 13 12
3  334 790 303
3  334 302 590
3  502 207 822
3  324 856 875
3  501 874 363
3  477 826 253
3  219 740 217
3  546 476 900
3  492 774 202
3  464 852 915
3  223 914 108
3  340 591 889
3  540 373 592
3  433 434 5
3  509 433 889
3  593 844 865
3  522 864 402
3  249 246 844
3  597 594 596
3  597 596 600
3  597 600 601
3  599 597 602
3  598 605 924
3  597 601 602
3  598 597 599
3  598 599 605
3  605 603 924
3  603 604 924
3  604 753 924
3  500 606 389
3  392 389 607
3  392 608 357
3  508 357 609
3  526 508 610
3  533 611 257
3  319 257 612
3  601 600 595
3  319 612 244
3  405 75 753
3  162 622 155
3  307 613 744
3  320 615 614
3  320 614 162
3  183 737 164
3  736 619 616
3  616 619 618
3  736 620 619
3  736 621 620
3  530 623 736
3  474 624 623
3  518 745 281
3  736 623 621
3  616 618 617
3  176 171 625
3  294 176 808
3  171 169 626
3  756 628 627
3  629 809 755
3  756 630 628
3  756 631 630
3  452 46 754
3  754 809 629
3  755 809 756
3  756 809 631
3  925 632 776
3  304 925 776
3  505 777 75
3  633 634 764
3  633 764 636
3  554 635 180
3  180 766 150
3  399 636 266
3  266 764 152
3  528 646 637
3  528 637 82
3  638 793 639
3  639 793 641
3  793 640 649
3  641 645 639
3  642 652 793
3  273 804 68
3  68 643 61
3  644 641 793
3  644 793 652
3  82 648 81
3  117 647 793
3  647 640 793
3  650 644 652
3  651 793 649
3  642 793 651
3  805 656 653
3  805 655 656
3  653 656 654
3  415 792 333
3  333 657 327
3  384 660 337
3  375 658 807
3  384 659 660
3  805 806 655
3  661 743 736
3  479 736 427
3  470 742 166
3  338 662 779
3  414 663 906
3  325 907 314
3  378 778 663
3  383 664 66
3  66 664 60
3  457 779 903
3  667 665 668
3  666 671 668
3  667 668 671
3  668 669 673
3  669 834 670
3  670 673 669
3  672 668 673
3  670 834 923
3  242 675 674
3  295 674 922
3  211 676 675
3  672 666 668
3  268 260 678
3  495 678 677
3  550 677 676
3  148 923 145
3  349 771 680
3  360 680 792
3  770 793 679
3  78 793 77
3  282 681 777
3  397 776 907
3  71 906 681
3  312 866 112
3  398 905 192
3  306 682 87
3  870 684 683
3  381 807 106
3  299 685 868
3  806 870 869
3  806 805 870
3  870 805 684
3  306 871 682
3  329 898 19
3  418 686 329
3  138 687 867
3  139 687 129
3  146 688 871
3  689 693 870
3  803 690 692
3  803 691 690
3  803 692 869
3  693 694 870
3  694 803 869
3  430 695 86
3  481 868 430
3  803 695 691
3  94 802 92
3  694 869 870
3  416 318 696
3  763 697 704
3  698 701 709
3  763 699 708
3  396 283 700
3  701 707 709
3  702 698 763
3  416 703 283
3  706 697 763
3  160 156 704
3  318 160 705
3  708 706 763
3  698 709 763
3  709 699 763
3  710 711 714
3  759 710 714
3  759 712 760
3  759 714 712
3  285 261 715
3  285 718 264
3  428 716 261
3  424 264 717
3  532 424 762
3  714 713 712
3  396 758 23
3  109 853 107
3  380 799 374
3  107 719 105
3  289 720 286
3  286 722 236
3  386 236 761
3  755 756 760
3  760 756 759
3  759 756 721
3  511 757 168
3  440 723 412
3  412 723 258
3  143 135 768
3  491 724 771
3  379 772 279
3  76 770 73
3  255 726 181
3  484 725 727
3  548 744 255
3  484 727 149
3  280 729 195
3  444 728 745
3  460 922 280
3  394 276 731
3  394 765 301
3  763 764 730
3  241 122 763
3  482 189 837
3  450 833 417
3  485 404 832
3  388 828 293
3  425 897 326
3  407 891 376
3  463 843 403
3  400 243 841
3  507 846 220
3  120 878 118
3  28 350 891
3  406 795 14
3  732 899 834
3  263 250 835
3  147 145 899
3  553 741 313
3  216 825 144
3  535 787 466
3  275 205 735
3  531 769 494
3  344 767 193
3  234 232 733
3  234 814 30
3  499 478 854
3  316 915 856
3  177 857 914
3  538 1 2
3  225 219 0
3  298 290 824
3  455 788 131
3  437 803 910
3  431 911 182
3  480 426 815
3  515 238 859
3  475 775 297
3  206 203 791
3  549 903 308
3  90 773 902
3  65 813 59
3  40 37 865
3  534 785 265
3  194 151 917
3  454 912 93
3  354 335 818
3  483 356 821
3  449 913 422
3  317 838 881
3  245 880 839
3  465 453 886
3  271 231 816
3  472 419 817
3  230 222 855
3  551 909 490
3  133 889 130
3  348 789 288
3  516 851 401
3  529 916 448
3  343 191 780
3  413 879 838
3  310 839 878
3  409 321 809
3  186 185 797
3  557 228 781
3  496 218 927
3  462 459 823
3  210 123 873
3  547 796 543
3  411 187 794
3  471 420 819
3  229 221 887
3  441 910 226
3  493 800 252
3  331 883 892
3  539 893 882
3  442 801 309
3  367 885 800
3  525 830 267
3  190 882 126
3  435 881 830
3  361 831 125
3  347 877 846
3  322 847 876
3  555 862 877
3  115 876 114
3  377 875 862
3  240 863 874
3  443 747 163
3  104 861 63
3  439 860 749
3  161 748 861
3  513 749 810
3  99 811 98

